<?xml version="1.0" encoding="UTF-8"?>
<svg width="265px" height="39px" viewBox="0 0 265 39" version="1.1" xmlns="http://www.w3.org/2000/svg" xmlns:xlink="http://www.w3.org/1999/xlink">
    <!-- Generator: Sketch 47.1 (45422) - http://www.bohemiancoding.com/sketch -->
    <title>Logo</title>
    <desc>Created with Sketch.</desc>
    <defs></defs>
    <g id="Symbols" stroke="none" stroke-width="1" fill="none" fill-rule="evenodd">
        <g id="Logo">
            <g>
                <g id="Group" transform="translate(37.000000, 8.000000)">
                    <path d="M186.306641,21 L183.322754,21 L183.322754,18.375 L186.306641,18.375 L186.306641,21 Z M192.70752,18.918457 C193.240725,18.918457 193.667967,18.762941 193.989258,18.4519043 C194.310548,18.1408676 194.471191,17.7255885 194.471191,17.2060547 L197.178223,17.2060547 L197.208984,17.2675781 C197.236328,18.3886775 196.815922,19.3269005 195.947754,20.0822754 C195.079586,20.8376503 193.999518,21.215332 192.70752,21.215332 C191.053214,21.215332 189.778325,20.692388 188.882812,19.6464844 C187.9873,18.6005807 187.539551,17.2573324 187.539551,15.6166992 L187.539551,15.309082 C187.539551,13.6752848 187.999263,12.3320365 188.918701,11.2792969 C189.838139,10.2265572 191.148917,9.70019531 192.851074,9.70019531 C193.746587,9.70019531 194.549801,9.83349476 195.260742,10.1000977 C195.971683,10.3667006 196.562986,10.7426734 197.034668,11.2280273 L197.075684,14.1914062 L194.645508,14.1914062 L194.15332,12.4584961 C194.002929,12.3286126 193.81836,12.2209477 193.599609,12.135498 C193.380858,12.0500484 193.131349,12.0073242 192.851074,12.0073242 C192.003414,12.0073242 191.405275,12.3149383 191.056641,12.9301758 C190.708006,13.5454132 190.533691,14.3383741 190.533691,15.309082 L190.533691,15.6166992 C190.533691,16.6079151 190.694334,17.4060028 191.015625,18.0109863 C191.336916,18.6159698 191.900875,18.918457 192.70752,18.918457 Z M198.0625,15.3500977 C198.0625,13.6957925 198.52563,12.3405815 199.451904,11.2844238 C200.378178,10.2282662 201.658195,9.70019531 203.291992,9.70019531 C204.932625,9.70019531 206.21606,10.2265572 207.142334,11.2792969 C208.068608,12.3320365 208.531738,13.6889565 208.531738,15.3500977 L208.531738,15.5654297 C208.531738,17.2334068 208.068608,18.5920358 207.142334,19.6413574 C206.21606,20.6906791 204.939461,21.215332 203.3125,21.215332 C201.665031,21.215332 200.378178,20.6906791 199.451904,19.6413574 C198.52563,18.5920358 198.0625,17.2334068 198.0625,15.5654297 L198.0625,15.3500977 Z M201.056641,15.5654297 C201.056641,16.5771535 201.234373,17.388913 201.589844,18.0007324 C201.945314,18.6125519 202.519527,18.918457 203.3125,18.918457 C204.084965,18.918457 204.650633,18.6108429 205.009521,17.9956055 C205.36841,17.380368 205.547852,16.5703175 205.547852,15.5654297 L205.547852,15.3500977 C205.547852,14.3657177 205.366701,13.5625031 205.004395,12.9404297 C204.642088,12.3183563 204.071293,12.0073242 203.291992,12.0073242 C202.512691,12.0073242 201.945314,12.3183563 201.589844,12.9404297 C201.234373,13.5625031 201.056641,14.3657177 201.056641,15.3500977 L201.056641,15.5654297 Z M208.985352,11.7099609 L208.985352,9.90527344 L213.36377,9.90527344 L213.486816,11.371582 C213.842287,10.8383762 214.288327,10.4265151 214.824951,10.1359863 C215.361575,9.84545753 215.98193,9.70019531 216.686035,9.70019531 C217.396976,9.70019531 218.005369,9.8574203 218.51123,10.171875 C219.017092,10.4863297 219.399901,10.9614226 219.659668,11.597168 C220.001467,11.0024384 220.445798,10.5375993 220.992676,10.2026367 C221.539554,9.86767411 222.182125,9.70019531 222.92041,9.70019531 C224.014166,9.70019531 224.877194,10.0778771 225.509521,10.833252 C226.141849,11.5886268 226.458008,12.7387618 226.458008,14.2836914 L226.458008,18.8979492 L227.903809,19.2055664 L227.903809,21 L222.171875,21 L222.171875,19.2055664 L223.463867,18.8979492 L223.463867,14.2734375 C223.463867,13.432613 223.32715,12.8481462 223.053711,12.5200195 C222.780272,12.1918929 222.373538,12.027832 221.833496,12.027832 C221.409666,12.027832 221.042238,12.1218252 220.731201,12.3098145 C220.420164,12.4978037 220.172364,12.7592757 219.987793,13.0942383 C219.987793,13.2241217 219.991211,13.3352046 219.998047,13.4274902 C220.004883,13.5197759 220.008301,13.6137691 220.008301,13.7094727 L220.008301,18.8979492 L221.218262,19.2055664 L221.218262,21 L215.814453,21 L215.814453,19.2055664 L217.024414,18.8979492 L217.024414,14.2734375 C217.024414,13.4531209 216.887697,12.873781 216.614258,12.5354004 C216.340819,12.1970198 215.930667,12.027832 215.383789,12.027832 C214.980467,12.027832 214.626711,12.1047356 214.32251,12.2585449 C214.018309,12.4123543 213.767091,12.6293931 213.568848,12.909668 L213.568848,18.8979492 L214.86084,19.2055664 L214.86084,21 L209.13916,21 L209.13916,19.2055664 L210.584961,18.8979492 L210.584961,12.0175781 L208.985352,11.7099609 Z" id=".com" fill="#E80100"></path>
                    <path d="M16.6508789,18.8642578 C16.0268523,19.4794953 15.1171935,20.0353979 13.921875,20.5319824 C12.7265565,21.0285669 11.2148529,21.2768555 9.38671875,21.2768555 C6.79393235,21.2768555 4.68457844,20.4089442 3.05859375,18.6730957 C1.43260906,16.9372472 0.619628906,14.6806779 0.619628906,11.9033203 L0.619628906,11.2441406 C0.619628906,8.37010282 1.42162284,6.03223557 3.02563477,4.23046875 C4.62964669,2.42870193 6.72361989,1.52783203 9.30761719,1.52783203 C10.8105544,1.52783203 12.1838317,1.76733159 13.4274902,2.24633789 C14.6711488,2.72534419 15.7060506,3.37353107 16.5322266,4.19091797 L16.5322266,8.05371094 L13.6845703,8.05371094 L13.144043,5.48291016 C12.7924787,5.18408054 12.3288603,4.94458098 11.7531738,4.7644043 C11.1774874,4.58422761 10.516117,4.49414062 9.76904297,4.49414062 C8.09032364,4.49414062 6.78516091,5.11376333 5.85351562,6.35302734 C4.92187034,7.59229135 4.45605469,9.21385717 4.45605469,11.2177734 L4.45605469,11.9033203 C4.45605469,13.8545019 4.91308137,15.4123477 5.82714844,16.5769043 C6.74121551,17.7414609 8.0595617,18.3237305 9.78222656,18.3237305 C10.5556679,18.3237305 11.1818824,18.2578132 11.6608887,18.1259766 C12.139895,17.99414 12.5156236,17.8403329 12.7880859,17.6645508 L12.7880859,14.4082031 L10.0458984,14.1972656 L10.0458984,11.4946289 L16.6508789,11.4946289 L16.6508789,18.8642578 Z M28.1479492,19.1938477 C27.6909157,19.8618197 27.1262241,20.3759748 26.4538574,20.7363281 C25.7814908,21.0966815 25.0146527,21.2768555 24.1533203,21.2768555 C22.6503831,21.2768555 21.4726605,20.7956591 20.6201172,19.833252 C19.7675739,18.8708448 19.3413086,17.3745219 19.3413086,15.3442383 L19.3413086,9.45117188 L17.7724609,9.05566406 L17.7724609,6.73535156 L23.190918,6.73535156 L23.190918,15.3706055 C23.190918,16.40772 23.3645002,17.1525856 23.7116699,17.6052246 C24.0588396,18.0578636 24.5751919,18.2841797 25.2607422,18.2841797 C25.8671905,18.2841797 26.3923318,18.1853037 26.8361816,17.9875488 C27.2800315,17.7897939 27.6425767,17.5063495 27.9238281,17.137207 L27.9238281,9.45117188 L26.2363281,9.05566406 L26.2363281,6.73535156 L31.7734375,6.73535156 L31.7734375,18.2973633 L33.5004883,18.6928711 L33.5004883,21 L28.3984375,21 L28.1479492,19.1938477 Z M34.3979492,18.6928711 L36.2568359,18.2973633 L36.2568359,9.45117188 L34.2001953,9.05566406 L34.2001953,6.73535156 L40.1064453,6.73535156 L40.1064453,18.2973633 L41.9521484,18.6928711 L41.9521484,21 L34.3979492,21 L34.3979492,18.6928711 Z M40.1064453,3.32080078 L36.2568359,3.32080078 L36.2568359,0.43359375 L40.1064453,0.43359375 L40.1064453,3.32080078 Z M51.9990234,19.2597656 C51.550779,19.9189486 51.0212433,20.4199202 50.4104004,20.7626953 C49.7995575,21.1054705 49.1030313,21.2768555 48.3208008,21.2768555 C46.5629795,21.2768555 45.1984912,20.6352603 44.2272949,19.3520508 C43.2560987,18.0688412 42.7705078,16.3725691 42.7705078,14.2631836 L42.7705078,13.9863281 C42.7705078,11.7363169 43.2582959,9.92139362 44.2338867,8.54150391 C45.2094775,7.16161419 46.5805576,6.47167969 48.347168,6.47167969 C49.0590856,6.47167969 49.7006807,6.62768399 50.2719727,6.93969727 C50.8432646,7.25171054 51.3442361,7.69335652 51.7749023,8.26464844 L51.7749023,3.14941406 L49.7182617,2.75390625 L49.7182617,0.43359375 L55.6245117,0.43359375 L55.6245117,18.2973633 L57.4702148,18.6928711 L57.4702148,21 L52.2890625,21 L51.9990234,19.2597656 Z M46.6201172,14.2631836 C46.6201172,15.5112367 46.8288553,16.4934046 47.2463379,17.2097168 C47.6638204,17.926029 48.3471632,18.2841797 49.2963867,18.2841797 C49.8588895,18.2841797 50.3466776,18.169923 50.7597656,17.9414062 C51.1728536,17.7128895 51.5112292,17.3833029 51.7749023,16.9526367 L51.7749023,10.9013672 C51.5112292,10.4443337 51.1750509,10.0905774 50.7663574,9.84008789 C50.357664,9.58959836 49.8764676,9.46435547 49.3227539,9.46435547 C48.3823195,9.46435547 47.6967795,9.88183176 47.2661133,10.7167969 C46.8354471,11.551762 46.6201172,12.6415948 46.6201172,13.9863281 L46.6201172,14.2631836 Z M65.0253906,21.2768555 C62.9687397,21.2768555 61.3252015,20.6176824 60.0947266,19.2993164 C58.8642517,17.9809504 58.2490234,16.3066508 58.2490234,14.2763672 L58.2490234,13.7490234 C58.2490234,11.6308488 58.831293,9.88623732 59.9958496,8.51513672 C61.1604062,7.14403611 62.7226465,6.46289058 64.6826172,6.47167969 C66.6074315,6.47167969 68.1015572,7.05175201 69.1650391,8.21191406 C70.2285209,9.37207611 70.7602539,10.9409081 70.7602539,12.918457 L70.7602539,15.0146484 L62.2436523,15.0146484 L62.2172852,15.09375 C62.287598,16.0341844 62.6018039,16.8076142 63.1599121,17.4140625 C63.7180204,18.0205108 64.4760694,18.3237305 65.434082,18.3237305 C66.2866254,18.3237305 66.9941378,18.238038 67.5566406,18.0666504 C68.1191434,17.8952628 68.7343717,17.6250018 69.4023438,17.2558594 L70.4438477,19.6289062 C69.8549775,20.0947289 69.092534,20.4858383 68.1564941,20.8022461 C67.2204543,21.1186539 66.1767636,21.2768555 65.0253906,21.2768555 Z M64.6826172,9.43798828 C63.9706996,9.43798828 63.4082052,9.71044649 62.9951172,10.2553711 C62.5820292,10.8002957 62.3271489,11.5165971 62.2304688,12.4042969 L62.2700195,12.4702148 L66.9897461,12.4702148 L66.9897461,12.1274414 C66.9897461,11.3100545 66.7985859,10.6574731 66.4162598,10.1696777 C66.0339336,9.68188233 65.4560586,9.43798828 64.6826172,9.43798828 Z M90.5102539,6.80126953 L90.4311523,6.78808594 L85.2895508,21 L82.7055664,21 L77.590332,6.84082031 L77.5112305,6.85400391 L77.8803711,15.2783203 L77.8803711,18.2973633 L79.9370117,18.6928711 L79.9370117,21 L71.9873047,21 L71.9873047,18.6928711 L74.0307617,18.2973633 L74.0307617,4.52050781 L71.9873047,4.125 L71.9873047,1.8046875 L79.0537109,1.8046875 L83.9448242,15.9506836 L84.0239258,15.9506836 L88.9545898,1.8046875 L96.0473633,1.8046875 L96.0473633,4.125 L93.9907227,4.52050781 L93.9907227,18.2973633 L96.0473633,18.6928711 L96.0473633,21 L88.0976562,21 L88.0976562,18.6928711 L90.1411133,18.2973633 L90.1411133,15.2783203 L90.5102539,6.80126953 Z M103.839844,21.2768555 C101.783193,21.2768555 100.139655,20.6176824 98.9091797,19.2993164 C97.6787048,17.9809504 97.0634766,16.3066508 97.0634766,14.2763672 L97.0634766,13.7490234 C97.0634766,11.6308488 97.6457461,9.88623732 98.8103027,8.51513672 C99.9748593,7.14403611 101.5371,6.46289058 103.49707,6.47167969 C105.421885,6.47167969 106.91601,7.05175201 107.979492,8.21191406 C109.042974,9.37207611 109.574707,10.9409081 109.574707,12.918457 L109.574707,15.0146484 L101.058105,15.0146484 L101.031738,15.09375 C101.102051,16.0341844 101.416257,16.8076142 101.974365,17.4140625 C102.532473,18.0205108 103.290523,18.3237305 104.248535,18.3237305 C105.101078,18.3237305 105.808591,18.238038 106.371094,18.0666504 C106.933597,17.8952628 107.548825,17.6250018 108.216797,17.2558594 L109.258301,19.6289062 C108.669431,20.0947289 107.906987,20.4858383 106.970947,20.8022461 C106.034907,21.1186539 104.991217,21.2768555 103.839844,21.2768555 Z M103.49707,9.43798828 C102.785153,9.43798828 102.222658,9.71044649 101.80957,10.2553711 C101.396482,10.8002957 101.141602,11.5165971 101.044922,12.4042969 L101.084473,12.4702148 L105.804199,12.4702148 L105.804199,12.1274414 C105.804199,11.3100545 105.613039,10.6574731 105.230713,10.1696777 C104.848387,9.68188233 104.270512,9.43798828 103.49707,9.43798828 Z M129.324707,6.80126953 L129.245605,6.78808594 L124.104004,21 L121.52002,21 L116.404785,6.84082031 L116.325684,6.85400391 L116.694824,15.2783203 L116.694824,18.2973633 L118.751465,18.6928711 L118.751465,21 L110.801758,21 L110.801758,18.6928711 L112.845215,18.2973633 L112.845215,4.52050781 L110.801758,4.125 L110.801758,1.8046875 L117.868164,1.8046875 L122.759277,15.9506836 L122.838379,15.9506836 L127.769043,1.8046875 L134.861816,1.8046875 L134.861816,4.125 L132.805176,4.52050781 L132.805176,18.2973633 L134.861816,18.6928711 L134.861816,21 L126.912109,21 L126.912109,18.6928711 L128.955566,18.2973633 L128.955566,15.2783203 L129.324707,6.80126953 Z M144.908691,21 C144.803222,20.7626941 144.710938,20.5188001 144.631836,20.2683105 C144.552734,20.017821 144.491211,19.765138 144.447266,19.5102539 C143.990232,20.0376003 143.434329,20.4638656 142.779541,20.7890625 C142.124753,21.1142594 141.375493,21.2768555 140.531738,21.2768555 C139.13427,21.2768555 138.024662,20.8967323 137.202881,20.1364746 C136.381099,19.3762169 135.970215,18.3413151 135.970215,17.0317383 C135.970215,15.6957941 136.506342,14.6630896 137.578613,13.9335938 C138.650884,13.2040979 140.224111,12.8393555 142.29834,12.8393555 L144.262695,12.8393555 L144.262695,11.4418945 C144.262695,10.7563442 144.064943,10.2246113 143.669434,9.84667969 C143.273924,9.46874811 142.689457,9.27978516 141.916016,9.27978516 C141.47656,9.27978516 141.085451,9.33032176 140.742676,9.43139648 C140.399901,9.53247121 140.123048,9.65331961 139.912109,9.79394531 L139.661621,11.3232422 L136.76123,11.3232422 L136.774414,8.15917969 C137.477543,7.68456794 138.283931,7.28466959 139.193604,6.95947266 C140.103276,6.63427572 141.094233,6.47167969 142.166504,6.47167969 C143.933114,6.47167969 145.367914,6.90453669 146.470947,7.77026367 C147.57398,8.63599066 148.125488,9.86864435 148.125488,11.4682617 L148.125488,17.3613281 C148.125488,17.5810558 148.127686,17.7875967 148.13208,17.980957 C148.136475,18.1743174 148.151855,18.3588858 148.178223,18.534668 L149.351562,18.6928711 L149.351562,21 L144.908691,21 Z M141.573242,18.4291992 C142.153323,18.4291992 142.680662,18.3039563 143.155273,18.0534668 C143.629885,17.8029773 143.999022,17.4887714 144.262695,17.1108398 L144.262695,14.9355469 L142.29834,14.9355469 C141.480953,14.9355469 140.86133,15.1267071 140.439453,15.5090332 C140.017576,15.8913593 139.806641,16.3505833 139.806641,16.8867188 C139.806641,17.3701196 139.962645,17.7480455 140.274658,18.0205078 C140.586671,18.2929701 141.019528,18.4291992 141.573242,18.4291992 Z M149.748047,2.75390625 L149.748047,0.43359375 L155.654297,0.43359375 L155.654297,18.2973633 L157.513184,18.6928711 L157.513184,21 L149.945801,21 L149.945801,18.6928711 L151.804688,18.2973633 L151.804688,3.14941406 L149.748047,2.75390625 Z M163.947754,3.24169922 L163.947754,6.73535156 L166.452637,6.73535156 L166.452637,9.43798828 L163.947754,9.43798828 L163.947754,16.7021484 C163.947754,17.2558621 164.062011,17.651366 164.290527,17.8886719 C164.519044,18.1259777 164.826658,18.2446289 165.213379,18.2446289 C165.477052,18.2446289 165.707763,18.2336427 165.905518,18.2116699 C166.103272,18.1896972 166.325194,18.152344 166.571289,18.0996094 L166.900879,20.8813477 C166.470213,21.0131843 166.043947,21.1120602 165.62207,21.1779785 C165.200193,21.2438968 164.743167,21.2768555 164.250977,21.2768555 C162.923821,21.2768555 161.902103,20.912113 161.185791,20.1826172 C160.469479,19.4531214 160.111328,18.2973712 160.111328,16.715332 L160.111328,9.43798828 L158.015137,9.43798828 L158.015137,6.73535156 L160.111328,6.73535156 L160.111328,3.24169922 L163.947754,3.24169922 Z M176.921387,21 C176.815917,20.7626941 176.723633,20.5188001 176.644531,20.2683105 C176.565429,20.017821 176.503906,19.765138 176.459961,19.5102539 C176.002927,20.0376003 175.447025,20.4638656 174.792236,20.7890625 C174.137448,21.1142594 173.388188,21.2768555 172.544434,21.2768555 C171.146966,21.2768555 170.037358,20.8967323 169.215576,20.1364746 C168.393795,19.3762169 167.98291,18.3413151 167.98291,17.0317383 C167.98291,15.6957941 168.519038,14.6630896 169.591309,13.9335938 C170.66358,13.2040979 172.236806,12.8393555 174.311035,12.8393555 L176.275391,12.8393555 L176.275391,11.4418945 C176.275391,10.7563442 176.077639,10.2246113 175.682129,9.84667969 C175.286619,9.46874811 174.702152,9.27978516 173.928711,9.27978516 C173.489256,9.27978516 173.098146,9.33032176 172.755371,9.43139648 C172.412596,9.53247121 172.135743,9.65331961 171.924805,9.79394531 L171.674316,11.3232422 L168.773926,11.3232422 L168.787109,8.15917969 C169.490238,7.68456794 170.296626,7.28466959 171.206299,6.95947266 C172.115971,6.63427572 173.106928,6.47167969 174.179199,6.47167969 C175.94581,6.47167969 177.38061,6.90453669 178.483643,7.77026367 C179.586675,8.63599066 180.138184,9.86864435 180.138184,11.4682617 L180.138184,17.3613281 C180.138184,17.5810558 180.140381,17.7875967 180.144775,17.980957 C180.14917,18.1743174 180.164551,18.3588858 180.190918,18.534668 L181.364258,18.6928711 L181.364258,21 L176.921387,21 Z M173.585938,18.4291992 C174.166019,18.4291992 174.693357,18.3039563 175.167969,18.0534668 C175.64258,17.8029773 176.011717,17.4887714 176.275391,17.1108398 L176.275391,14.9355469 L174.311035,14.9355469 C173.493648,14.9355469 172.874026,15.1267071 172.452148,15.5090332 C172.030271,15.8913593 171.819336,16.3505833 171.819336,16.8867188 C171.819336,17.3701196 171.97534,17.7480455 172.287354,18.0205078 C172.599367,18.2929701 173.032224,18.4291992 173.585938,18.4291992 Z" id="GuideMeMalta" fill="#282D33"></path>
                </g>
                <g id="Logo-Pin">
                    <path d="M15.261184,0.214693436 C6.87604622,0.214693436 0.0781084444,6.85843089 0.0781084444,15.0533653 C0.0781084444,15.6807938 0.129592889,16.2920988 0.208099556,16.8984 C1.50545067,28.489288 14.2752996,37.9910641 14.2752996,37.9910641 C15.3146596,38.7224618 15.3146596,38.7224618 16.4638151,37.9910641 C16.4638151,37.9910641 29.0496284,28.4653807 30.3171129,16.8717127 C30.3927751,16.2737514 30.4442596,15.6674502 30.4442596,15.0505853 C30.4414151,6.85843089 23.6463218,0.214693436 15.261184,0.214693436" id="Fill-1" fill="#FFAD02"></path>
                    <path d="M15.3147733,0.216055598 C15.2971378,0.216055598 15.2792178,0.214665637 15.2612978,0.214665637 C6.87616,0.214665637 0.0782222222,6.85868108 0.0782222222,15.0533375 C0.0782222222,15.680766 0.129422222,16.292071 0.208213333,16.8983722 C1.50528,28.4892602 14.2754133,37.9910363 14.2754133,37.9910363 C14.78656,38.3507583 15.0462578,38.5314533 15.3147733,38.5372911 L15.3147733,0.216055598 Z" id="Fill-3" fill="#FFAD02" style="mix-blend-mode: multiply;"></path>
                    <path d="M20.0283876,10.2615012 C20.0283876,10.2615012 22.0032853,13.1915398 21.234432,16.0220571 C20.4155164,19.0352154 17.7519787,20.2984124 16.0649387,20.5377637 C13.4190364,20.9127753 11.9282631,19.7974703 9.80516978,18.7900263 C7.57256533,17.7300417 5.45544533,18.0469529 4.47980089,18.4200185 C3.80424533,18.6779954 3.71805867,18.5289915 3.76698311,18.1962347 C3.834112,17.7386595 6.05647644,12.5860726 11.3036231,10.3465668 C16.3328853,8.19991042 20.0283876,10.2615012 20.0283876,10.2615012" id="Fill-5" fill="#FFFFFF"></path>
                    <path d="M15.3387804,18.7607537 C17.468416,18.7607537 19.1949938,17.0733405 19.1949938,14.9917344 C19.1949938,12.9101282 17.468416,11.2227151 15.3387804,11.2227151 C13.208576,11.2227151 11.4819982,12.9101282 11.4819982,14.9917344 C11.4819982,17.0733405 13.208576,18.7607537 15.3387804,18.7607537 Z" id="Fill-7" fill="#0069FF"></path>
                    <path d="M13.9567218,14.9917344 C13.9567218,15.7375876 14.5753884,16.3422208 15.3385529,16.3422208 C16.1017173,16.3422208 16.7206684,15.7375876 16.7206684,14.9917344 C16.7206684,14.2458811 16.1017173,13.6412479 15.3385529,13.6412479 C14.5753884,13.6412479 13.9567218,14.2458811 13.9567218,14.9917344" id="Fill-9" fill="#403730"></path>
                    <path d="M5.47228444,28.992871 C9.48380444,34.4209483 14.2752711,37.9909251 14.2752711,37.9909251 C15.3149156,38.7223228 15.3149156,38.7223228 16.4637867,37.9909251 C16.4637867,37.9909251 29.0496,28.4655197 30.3170844,16.8715737 C30.3699911,16.4529174 30.4032711,16.0278672 30.4231822,15.6000371 C24.6862222,23.2022919 15.7028978,28.3140139 5.47228444,28.992871" id="Fill-17" fill="#0069FF"></path>
                    <path d="M15.3147733,26.8574456 C12.2251378,28.0202873 8.92216889,28.7636386 5.47214222,28.9929822 C8.96938667,33.7255228 13.0574222,37.0436386 14.0487111,37.8167351 C14.0580978,37.8239629 14.0680533,37.8320247 14.0765867,37.8386965 C14.1317689,37.8812293 14.1761422,37.9154224 14.208,37.9398857 C14.2142578,37.9446116 14.2236444,37.9518394 14.2287644,37.9557313 C14.2546489,37.9754687 14.2754133,37.9910363 14.2754133,37.9910363 C14.78656,38.3507583 15.0462578,38.5314533 15.3147733,38.5372911 L15.3147733,26.8574456 Z" id="Fill-19" fill="#0069FF" style="mix-blend-mode: multiply;"></path>
                    <path d="M21.40672,7.89531429 C21.40672,7.89531429 22.26432,8.55860386 21.8311111,9.7236695 C21.4269156,10.8117313 20.5220978,10.6224185 20.5220978,10.6224185 C20.5220978,10.6224185 20.3958044,10.6199166 19.5202844,10.1401019 C18.6245689,9.64944556 14.3305956,8.5716695 10.3725511,11.0635923 C7.79264,12.6881792 6.45944889,13.9119012 4.60686222,17.1863722 C3.6352,18.9040865 3.56807111,19.3613838 2.77873778,20.1041792 C2.55544889,20.3143413 1.53685333,20.5453529 1.85400889,19.2765961 C2.24199111,17.7251212 6.88298667,3.38878147 21.40672,7.89531429" id="Fill-14" fill="#FF0202"></path>
                    <path d="M21.9992447,1.75255639 C19.9690718,0.76815192 17.6813575,0.214693436 15.261184,0.214693436 C6.87604622,0.214693436 0.0781084444,6.85843089 0.0781084444,15.0533653 C0.0781084444,15.6807938 0.129592889,16.2920988 0.208099556,16.8984 C0.350314903,18.1689906 0.630389484,19.4144775 1.01639017,20.6250962 C1.48502866,20.2139128 1.63010043,19.7434614 1.66948978,19.6132726 C2.58312533,16.6015042 7.22838756,3.68181313 21.4631253,7.92953514 C21.5658098,7.96011429 22.985472,6.78114903 23.0215964,4.97753514 C23.0487637,3.63336953 22.6753386,2.56522129 21.9992447,1.75255639 Z" id="Combined-Shape" fill="#403730"></path>
                </g>
            </g>
        </g>
    </g>
</svg>